<svg xmlns="http://www.w3.org/2000/svg" width="358.911" height="277.877" viewBox="0 0 358.911 277.877">
  <g id="Group_3" data-name="Group 3" transform="translate(0)">
    <path id="Path_1" data-name="Path 1" d="M911.263,441.9l7.849-7.853a139.733,139.733,0,0,0-3.02-15.46l-4.473,2.264,4.019-4.021c-1.666-6.281-3.166-10.335-3.166-10.335s-15.817,16.109-23.993,35l5.065,13.316-6.93-8.56a56.541,56.541,0,0,0-1.943,6.834c-5,23.373-1.423,43.955,7.993,45.97s21.1-15.3,26.107-38.672a74.436,74.436,0,0,0,.773-22.674Z" transform="translate(-595.011 -284.184)" fill="#e6e6e6"/>
    <path id="Path_2" data-name="Path 2" d="M941.2,493.817l10.778-2.665a139.769,139.769,0,0,0,5.406-14.795l-5-.374,5.518-1.365c1.821-6.238,2.632-10.484,2.632-10.484s-21.867,5.614-38.63,17.558l-2.547,14.018-1.508-10.91a56.546,56.546,0,0,0-5.2,4.846c-16.364,17.423-23.939,36.892-16.92,43.484s25.975-2.187,42.338-19.611a74.434,74.434,0,0,0,12.382-19.01Z" transform="translate(-601.625 -319.793)" fill="#e6e6e6"/>
    <path id="Path_3" data-name="Path 3" d="M684.538,200.821l2.648-20.781a263.688,263.688,0,0,0-22.355-19.587L660.77,169l1.356-10.64c-9.737-7.451-16.657-11.769-16.657-11.769s-5.01,42.3,4.6,79.934L673,240.547l-20.226-4.775a106.67,106.67,0,0,0,4.99,12.443c19.519,40.659,48.621,67.244,65,59.381s13.836-47.2-5.683-87.858c-6.051-12.6-15.233-24.423-25.023-34.733Z" transform="translate(-447.828 -123.62)" fill="#e6e6e6"/>
    <path id="Path_4" data-name="Path 4" d="M812,174.04l13.008-16.421A263.694,263.694,0,0,0,816,129.3L808.1,134.51l6.66-8.408c-4.484-11.412-8.176-18.685-8.176-18.685s-26.155,33.623-37.383,70.8l12.382,23.862L766.74,187.539a106.691,106.691,0,0,0-2.161,13.231c-4.307,44.9,6.863,82.7,24.951,84.432s36.242-33.253,40.549-78.148c1.335-13.918-.416-28.781-3.467-42.668Z" transform="translate(-521.648 -99.422)" fill="#e6e6e6"/>
    <path id="Path_5" data-name="Path 5" d="M181.043,218.9l-1.316-21.805a274.966,274.966,0,0,0-26.7-15.734L150.52,190.9l-.674-11.164c-11.421-5.747-19.348-8.829-19.348-8.829s3.068,44.313,20.206,81.006l26.216,9.925-21.649-.971A111.241,111.241,0,0,0,162.8,272.65c27.881,37.873,62.852,59.47,78.11,48.238s5.026-51.041-22.855-88.914c-8.643-11.741-20.342-22.07-32.371-30.735Z" transform="translate(-130.499 -138.645)" fill="#e6e6e6"/>
    <path id="Path_6" data-name="Path 6" d="M334.364,153.709l10.145-19.346a274.956,274.956,0,0,0-14.724-27.271l-7.076,6.872,5.194-9.905c-6.806-10.823-12-17.559-12-17.559s-20.279,39.52-24.575,79.789l17.312,22.047-18.03-12.022a111.241,111.241,0,0,0,.351,13.975c4.29,46.833,23.064,83.4,41.932,81.669s30.685-41.1,26.4-87.928c-1.33-14.519-6.006-29.407-11.824-43.043Z" transform="translate(-229.363 -86.5)" fill="#e6e6e6"/>
    <ellipse id="Ellipse_1" data-name="Ellipse 1" cx="13.378" cy="3.822" rx="13.378" ry="3.822" transform="translate(148.377 255.326)" fill="#e6e6e6"/>
    <ellipse id="Ellipse_2" data-name="Ellipse 2" cx="13.378" cy="3.822" rx="13.378" ry="3.822" transform="translate(294.005 270.233)" fill="#e6e6e6"/>
    <ellipse id="Ellipse_3" data-name="Ellipse 3" cx="13.378" cy="3.822" rx="13.378" ry="3.822" transform="translate(321.907 238.89)" fill="#e6e6e6"/>
    <ellipse id="Ellipse_4" data-name="Ellipse 4" cx="10.129" cy="2.894" rx="10.129" ry="2.894" transform="translate(270.307 229.663)" fill="#e6e6e6"/>
    <ellipse id="Ellipse_5" data-name="Ellipse 5" cx="6.689" cy="2.075" rx="6.689" ry="2.075" transform="translate(54.35 228.571)" fill="#e6e6e6"/>
    <ellipse id="Ellipse_6" data-name="Ellipse 6" cx="6.689" cy="2.075" rx="6.689" ry="2.075" transform="translate(27.976 251.886)" fill="#e6e6e6"/>
    <ellipse id="Ellipse_7" data-name="Ellipse 7" cx="6.689" cy="2.075" rx="6.689" ry="2.075" transform="translate(27.976 215.193)" fill="#e6e6e6"/>
    <path id="Path_7" data-name="Path 7" d="M514.911,450.815l-64.81-2.293-34.179,3.26-58.393,5.569-21.974,2.095-50.889,16.971a1.139,1.139,0,0,1-1.426-1.483l0,0,8.826-23.342-.929-.684-24.287-17.846-.13-.1-31.492-4.8a2.641,2.641,0,0,1-1.766-4.12l47.962-68.823,25.2-36.158,2.733-3.925,104.844-1.449L516.574,447.6a2,2,0,0,1-1.663,3.218Z" transform="translate(-193.817 -226.849)" fill="#6c63ff"/>
    <path id="Path_8" data-name="Path 8" d="M258.159,242.765,215.374,372.95,191.09,355.1l14.573-77.839,25.131-36.246.071.084Z" transform="translate(-118.051 -148.896)" opacity="0.2"/>
    <path id="Path_9" data-name="Path 9" d="M371.939,425.914c-4.855,11.671-6.573,21.419-12.332,19.658-7.884-2.41.394-10.934,5.249-22.6s8.285-20.623,12.332-19.658C384.733,405.108,376.794,414.244,371.939,425.914Z" transform="translate(-270.022 -282.173)" fill="#3f3d56"/>
    <path id="Path_10" data-name="Path 10" d="M394.09,390.323a5.882,5.882,0,0,0-5.891-5.872c-.133,0-.264.006-.394.015l-5.55-.685a5.87,5.87,0,0,0-1.984-.341c-.187,0-.371.01-.553.028l-.214-.026-.006.052a5.882,5.882,0,0,0-1.243,11.351l-.012.106.546.061a5.888,5.888,0,0,0,1.5.191c.056,0,.112,0,.167,0l5.674.636a5.866,5.866,0,0,0,2.088.379,5.929,5.929,0,0,0,.795-.056l.484.054,0-.142A5.883,5.883,0,0,0,394.09,390.323Z" transform="translate(-281.173 -269.943)" fill="#6c63ff"/>
    <path id="Path_11" data-name="Path 11" d="M394.09,390.323a5.882,5.882,0,0,0-5.891-5.872c-.133,0-.264.006-.394.015l-5.55-.685a5.87,5.87,0,0,0-1.984-.341c-.187,0-.371.01-.553.028l-.214-.026-.006.052a5.882,5.882,0,0,0-1.243,11.351l-.012.106.546.061a5.888,5.888,0,0,0,1.5.191c.056,0,.112,0,.167,0l5.674.636a5.866,5.866,0,0,0,2.088.379,5.929,5.929,0,0,0,.795-.056l.484.054,0-.142A5.883,5.883,0,0,0,394.09,390.323Z" transform="translate(-281.173 -269.943)" fill="#fff" opacity="0.2"/>
    <path id="Path_12" data-name="Path 12" d="M219.315,441.792l-.679-.357c17.4-33.165,66.616-104.027,67.111-104.739l.63.438C285.882,337.846,236.693,408.668,219.315,441.792Z" transform="translate(-184.948 -241.065)" fill="#3f3d56"/>
    <path id="Path_13" data-name="Path 13" d="M358.665,492.282l-.74-.2c.358-1.318,36-132.055,48.375-154.109l.669.375C394.64,360.319,359.023,490.965,358.665,492.282Z" transform="translate(-270.997 -241.853)" fill="#3f3d56"/>
    <path id="Path_14" data-name="Path 14" d="M834.949,465.785c-19-31.3-90.758-128.243-91.481-129.219l.617-.457c.723.976,72.5,97.946,91.52,129.277Z" transform="translate(-509.176 -240.703)" fill="#3f3d56"/>
    <ellipse id="Ellipse_8" data-name="Ellipse 8" cx="2.685" cy="3.452" rx="2.685" ry="3.452" transform="translate(83.591 247.009) rotate(-0.092)" fill="#3f3d56"/>
    <ellipse id="Ellipse_9" data-name="Ellipse 9" cx="2.685" cy="3.452" rx="2.685" ry="3.452" transform="translate(31.846 195.31) rotate(-0.092)" fill="#3f3d56"/>
    <ellipse id="Ellipse_10" data-name="Ellipse 10" cx="2.685" cy="3.452" rx="2.685" ry="3.452" transform="translate(323.789 219.905) rotate(-0.092)" fill="#3f3d56"/>
    <path id="Path_15" data-name="Path 15" d="M386.414,277.37l144.718,1.551A44.8,44.8,0,0,0,486.31,234.5l-55.23.089a45.01,45.01,0,0,0-44.532,41.128Z" transform="translate(-288.597 -177.931)" fill="#3f3d56"/>
    <path id="Path_16" data-name="Path 16" d="M625.731,471.814H572.839a4.862,4.862,0,0,0-4.866,4.923l.046,3.868.47,41.41.008.8.015,1.319.015,1.288.088,7.763A4.869,4.869,0,0,0,573.378,538c.13,0,.264,0,.4-.011l12.56-.764,18.171-1.108,6.414-.39,1.43-.088,10-.608h0l3.677-.225a4.873,4.873,0,0,0,4.571-4.858V476.68a4.871,4.871,0,0,0-4.866-4.866Z" transform="translate(-400.76 -324.537)" opacity="0.2"/>
    <path id="Path_17" data-name="Path 17" d="M624.23,444.664a1.3,1.3,0,0,0-.963.552l-5.828.009V443.68a4.871,4.871,0,0,0-4.866-4.866H559.682a4.862,4.862,0,0,0-4.866,4.923l.019,1.589-3.759.006a1.163,1.163,0,0,0-.789-.366c-1.317,0-2.381,2.879-2.375,6.426s1.078,6.42,2.4,6.418a1.439,1.439,0,0,0,1.1-.736l71.875-.116a1.3,1.3,0,0,0,.965.549c1.317,0,2.381-2.879,2.375-6.426S625.547,444.662,624.23,444.664Z" transform="translate(-388.366 -304.151)" fill="#6c63ff"/>
    <path id="Path_18" data-name="Path 18" d="M624.23,444.664a1.3,1.3,0,0,0-.963.552l-5.828.009V443.68a4.871,4.871,0,0,0-4.866-4.866H559.682a4.862,4.862,0,0,0-4.866,4.923l.019,1.589-3.759.006a1.163,1.163,0,0,0-.789-.366c-1.317,0-2.381,2.879-2.375,6.426s1.078,6.42,2.4,6.418a1.439,1.439,0,0,0,1.1-.736l71.875-.116a1.3,1.3,0,0,0,.965.549c1.317,0,2.381-2.879,2.375-6.426S625.547,444.662,624.23,444.664Z" transform="translate(-388.366 -304.151)" fill="#fff" opacity="0.2"/>
    <path id="Path_19" data-name="Path 19" d="M719.553,652.28h0a3.109,3.109,0,0,1-4.881-.834l-2.875-5.521,1.144-2.479,6.165,3.945a3.109,3.109,0,0,1,.448,4.889Z" transform="translate(-489.61 -430.567)" fill="#ffb8b8"/>
    <path id="Path_20" data-name="Path 20" d="M751.951,747.117a2.575,2.575,0,0,0-2.6-2.3,2.607,2.607,0,0,0-2.547,1.974h0l-2.547,12.366a5,5,0,0,0-.13,1.1c0,2.789,2.334,4.727,5.223,4.727s5.225-1.938,5.225-4.727a5.057,5.057,0,0,0-.18-1.322Z" transform="translate(-509.586 -493.191)" fill="#3f3d56"/>
    <path id="Path_21" data-name="Path 21" d="M792.611,752.648a5.85,5.85,0,0,0-.833-.609l-9.729-6.8a2.08,2.08,0,0,0-2.694.14,1.893,1.893,0,0,0-.28,2.407l7.346,9.655a5.118,5.118,0,0,0,.56.656,4.182,4.182,0,0,0,5.649,0C794.162,756.572,794.143,753.851,792.611,752.648Z" transform="translate(-530.983 -493.192)" fill="#3f3d56"/>
    <path id="Path_22" data-name="Path 22" d="M816.179,738.954h-9.853a1.2,1.2,0,0,0-1.243,1.142,1.3,1.3,0,0,0,.968,1.282l9.3,2.875a2.745,2.745,0,0,0,3.169-2.391C818.515,739.95,817.452,738.954,816.179,738.954Z" transform="translate(-547.24 -489.569)" fill="#3f3d56"/>
    <path id="Path_23" data-name="Path 23" d="M689.687,740.076a1.223,1.223,0,0,0-1.322-1.142h-9.854c-1.241,0-2.288,1.34-2.288,2.843a2.748,2.748,0,0,0,3.12,2.461l9.435-2.875A1.184,1.184,0,0,0,689.687,740.076Z" transform="translate(-467.634 -489.555)" fill="#3f3d56"/>
    <path id="Path_24" data-name="Path 24" d="M710.155,745.256l-9.732,6.77a4.527,4.527,0,0,0-.84.609,3.684,3.684,0,0,0-.189,5.207q.091.1.189.189a4.112,4.112,0,0,0,5.647,0,4.3,4.3,0,0,0,.56-.655l7.352-9.6a1.845,1.845,0,0,0-.28-2.387A2.1,2.1,0,0,0,710.155,745.256Z" transform="translate(-481.339 -493.196)" fill="#3f3d56"/>
    <path id="Path_25" data-name="Path 25" d="M752.149,707.188a1.046,1.046,0,0,0,.18-.562c0-1.185-2.335-2.009-5.225-2.009s-5.223.824-5.223,2.009a1,1,0,0,0,.13.469l2.547,5.256h0a3.185,3.185,0,0,0,2.547.839c1.356,0,2.482-.429,2.6-.978Z" transform="translate(-508.196 -468.358)" fill="#3f3d56"/>
    <path id="Path_26" data-name="Path 26" d="M790.381,711.523a8.78,8.78,0,0,0-5.649,0,4.584,4.584,0,0,0-.56.279l-7.346,4.1c-.5.325-.382.755.28,1.023a4.4,4.4,0,0,0,2.694.059l9.729-2.889a8.3,8.3,0,0,0,.833-.259C791.894,713.328,791.912,712.172,790.381,711.523Z" transform="translate(-529.594 -472.336)" fill="#3f3d56"/>
    <path id="Path_27" data-name="Path 27" d="M816.266,724.625c0-.639-1.819-1.15-3.169-1.016l-9.3,1.222c-.556.078-.968.259-.968.545s.606.485,1.243.485h9.853C815.2,725.86,816.266,725.437,816.266,724.625Z" transform="translate(-545.851 -480.077)" fill="#3f3d56"/>
    <path id="Path_28" data-name="Path 28" d="M686.529,724.832l-9.435-1.222c-1.354-.134-3.12.407-3.12,1.046s1.047,1.208,2.288,1.208h9.853c.686,0,1.322-.188,1.322-.485S687.144,724.91,686.529,724.832Z" transform="translate(-466.244 -480.078)" fill="#3f3d56"/>
    <path id="Path_29" data-name="Path 29" d="M710.613,716.959c.688-.272.77-.683.28-1.014l-7.352-4.08a3.857,3.857,0,0,0-.56-.278,8.594,8.594,0,0,0-5.647,0q-.1.039-.189.08c-1.386.633-1.3,1.624.189,2.213a6.454,6.454,0,0,0,.84.259l9.732,2.877A4.447,4.447,0,0,0,710.613,716.959Z" transform="translate(-479.95 -472.368)" fill="#3f3d56"/>
    <path id="Path_30" data-name="Path 30" d="M742.982,645.18c0,15.2-8.47,15.479-18.919,15.479s-27.6-3.007-18.919-15.479c9.159-13.155,24.873-38.231,18.919-39.558C724.063,605.622,742.982,629.982,742.982,645.18Z" transform="translate(-484.033 -407.201)" fill="#f9a825"/>
    <path id="Path_31" data-name="Path 31" d="M750.185,708.276c0,6.016-3.353,6.127-7.489,6.127s-10.927-1.19-7.489-6.127c3.626-5.207,9.846-15.133,7.489-15.659C742.7,692.617,750.185,702.26,750.185,708.276Z" transform="translate(-503.492 -460.944)" fill="#ff6584" opacity="0.5"/>
    <path id="Path_32" data-name="Path 32" d="M631.432,607.536v2.718a4.873,4.873,0,0,1-4.571,4.858L574.61,618.3a4.863,4.863,0,0,1-5.16-4.8l-.126-11.169,31.606-.512Z" transform="translate(-401.594 -404.848)" fill="#3f3d56"/>
    <path id="Path_33" data-name="Path 33" d="M662.212,587.642,638.64,575.4a.863.863,0,0,1-.44-.558l-5.113-20.608a4.947,4.947,0,0,1,3.167-5.86l1.232-.431a2.126,2.126,0,0,1,2.751,1.438l5.04,18.144a.862.862,0,0,0,.281.434l19.206,15.913a.863.863,0,0,1,.162,1.152l-1.6,2.342A.863.863,0,0,1,662.212,587.642Z" transform="translate(-440.894 -371.493)" fill="#e6e6e6"/>
    <path id="Path_34" data-name="Path 34" d="M610.343,511.713c-11.433-6.019-23.4-9.042-36.227-7.246,3.867-6.553,6.738-12.612,6.546-17.147a8.928,8.928,0,0,1,3.5-7.606,10.838,10.838,0,0,1,6.459-2.132h0a8.876,8.876,0,0,1,6.574-.261,6.913,6.913,0,0,1,4.01,3.971,6.289,6.289,0,0,0,2.752,2.813,7.723,7.723,0,0,1,2.98,3.113,5.115,5.115,0,0,1-.218,5.428C611.148,497.3,611.161,504.286,610.343,511.713Z" transform="translate(-404.554 -327.626)" fill="#2f2e41"/>
    <circle id="Ellipse_11" data-name="Ellipse 11" cx="8.008" cy="8.008" r="8.008" transform="translate(181.573 153.008)" fill="#ffb8b8"/>
    <path id="Path_35" data-name="Path 35" d="M621.37,531.583l-9.343.953c.5-5.463.7-10.5,0-14.3h9.343C619.6,524.281,619.752,528.59,621.37,531.583Z" transform="translate(-427.975 -353.216)" fill="#ffb8b8"/>
    <path id="Path_36" data-name="Path 36" d="M600.006,539.225q-.011,1.256-.053,2.484c-.195,5.863-.933,11.142-2.943,15.029a13.5,13.5,0,0,1-1.456,2.274.068.068,0,0,1-.015.019,1.467,1.467,0,0,1-.126.153,10.81,10.81,0,0,1-1.365,1.41l-3.826,4.013-.176.183-1.116.745-5.749,3.83-13.806-7.419-.015-1.288-.015-1.319c3.069-4.35,4.984-10.007,6.2-16.447.333-1.762.615-3.585.856-5.458.164-1.3.31-2.618.436-3.96a2.116,2.116,0,0,1,.4-1.143,0,0,0,0,1,0,0h0c.589-.749,1.758-.734,3.172-.81,1.984-.107,3.937-1.135,5.691-.164a1.029,1.029,0,0,1,.126.069l5.149,5.718,2.366-2.549.111-.119,4.873,2.087a2.25,2.25,0,0,1,1.277,2.664Z" transform="translate(-401.607 -361.065)" fill="#e6e6e6"/>
    <path id="Path_37" data-name="Path 37" d="M589.164,613.64a7.735,7.735,0,0,1-.543,2.849l-1.414,3.568-12.56.764c-.134.008-.268.011-.4.011a4.869,4.869,0,0,1-4.763-4.812l-.088-7.763-.015-1.288,4.571,1.938,4.457-2.393a6.658,6.658,0,0,1,.745-.268,7.166,7.166,0,0,1,1.009-.241h0c.164-.027.329-.05.493-.065a7.725,7.725,0,0,1,5.317,1.441,7.624,7.624,0,0,1,2.182,2.454,1.813,1.813,0,0,1,.111.206,7.458,7.458,0,0,1,.68,1.8A7.824,7.824,0,0,1,589.164,613.64Z" transform="translate(-401.631 -407.374)" fill="#2f2e41"/>
    <path id="Path_38" data-name="Path 38" d="M481.279,479.874l1.671,7.665,10.151,8.732-8.961-9.152Z" transform="translate(-297.322 -296.454)" opacity="0.2"/>
    <path id="Path_39" data-name="Path 39" d="M456.836,489.352l3.051,12.394,8.962,3.242-8.389-4.195Z" transform="translate(-282.222 -302.31)" opacity="0.2"/>
    <path id="Path_40" data-name="Path 40" d="M621.793,493.6c-5.9-2.715-12.575-3.49-18.5-.572l.763-6.864,12.966-2.1Z" transform="translate(-422.582 -332.106)" fill="#2f2e41"/>
    <path id="Path_41" data-name="Path 41" d="M575.168,564.026l-43.4-7.456.532-2.622,42.868,10.078Z" transform="translate(-328.513 -342.215)" fill="#3f3d56"/>
    <path id="Path_42" data-name="Path 42" d="M668.671,637.315h0a3.109,3.109,0,0,1-4.881-.834l-2.876-5.521,1.144-2.479,6.165,3.945a3.109,3.109,0,0,1,.448,4.889Z" transform="translate(-458.177 -421.322)" fill="#ffb8b8"/>
    <path id="Path_43" data-name="Path 43" d="M611.33,572.677l-23.572-12.243a.863.863,0,0,1-.44-.558L582.2,539.267a4.947,4.947,0,0,1,3.167-5.86l1.232-.431a2.126,2.126,0,0,1,2.751,1.438l5.04,18.144a.863.863,0,0,0,.281.434L613.881,568.9a.863.863,0,0,1,.162,1.152l-1.6,2.342A.863.863,0,0,1,611.33,572.677Z" transform="translate(-409.461 -362.248)" fill="#e6e6e6"/>
    <path id="Path_44" data-name="Path 44" d="M752.352,662.246a.8.8,0,0,0,.943-.629l.435-2.177a.8.8,0,0,0-.629-.943l-6.3-1.259a.8.8,0,0,0-.943.629l-.435,2.177a.8.8,0,0,0,.629.943Z" transform="translate(-510.374 -439.079)" fill="#e6e6e6"/>
  </g>
</svg>
