<svg xmlns="http://www.w3.org/2000/svg" width="354.63" height="404.415" viewBox="0 0 354.63 404.415">
  <g id="Group_4" data-name="Group 4" transform="translate(0 0)">
    <path id="Path_45" data-name="Path 45" d="M766.23,152.885h-2.087V95.705a33.094,33.094,0,0,0-33.094-33.094H609.905a33.094,33.094,0,0,0-33.094,33.094V409.4a33.094,33.094,0,0,0,33.094,33.094H731.049A33.094,33.094,0,0,0,764.143,409.4V193.587h2.087Z" transform="translate(-411.6 -62.611)" fill="#e6e6e6"/>
    <path id="Path_46" data-name="Path 46" d="M740.747,79.106H724.934a11.742,11.742,0,0,1-10.871,16.176h-69.4a11.742,11.742,0,0,1-10.871-16.176H619.02a24.714,24.714,0,0,0-24.714,24.714V417.054a24.714,24.714,0,0,0,24.714,24.714H740.747a24.714,24.714,0,0,0,24.714-24.714h0V103.82a24.714,24.714,0,0,0-24.714-24.715Z" transform="translate(-419.962 -70.496)" fill="#fff"/>
    <path id="Path_39" data-name="Path 39" d="M766.822,512.323H620.868a2.706,2.706,0,0,1-2.7-2.7v-36.2a2.706,2.706,0,0,1,2.7-2.7H766.822a2.706,2.706,0,0,1,2.7,2.7v36.205A2.706,2.706,0,0,1,766.822,512.323ZM620.868,471.794a1.623,1.623,0,0,0-1.622,1.622v36.205a1.623,1.623,0,0,0,1.622,1.622H766.822a1.623,1.623,0,0,0,1.622-1.622V473.416a1.623,1.623,0,0,0-1.622-1.622Z" transform="translate(-431.368 -257.694)" fill="#e6e6e6"/>
    <circle id="Ellipse_5" data-name="Ellipse 5" cx="11.352" cy="11.352" r="11.352" transform="translate(197.067 222.472)" fill="#e6e6e6"/>
    <path id="Path_40" data-name="Path 40" d="M708.084,496.073a1.892,1.892,0,1,0,0,3.784h89.194a1.892,1.892,0,0,0,.062-3.784H708.084Z" transform="translate(-473.447 -269.816)" fill="#e6e6e6"/>
    <path id="Path_41" data-name="Path 41" d="M708.084,517.821a1.892,1.892,0,1,0,0,3.784h89.194a1.892,1.892,0,0,0,.062-3.784H708.084Z" transform="translate(-473.447 -280.212)" fill="#e6e6e6"/>
    <path id="Path_42" data-name="Path 42" d="M766.822,628.313H620.868a2.706,2.706,0,0,1-2.7-2.7v-36.2a2.706,2.706,0,0,1,2.7-2.7H766.822a2.706,2.706,0,0,1,2.7,2.7v36.205A2.706,2.706,0,0,1,766.822,628.313ZM620.868,587.784a1.623,1.623,0,0,0-1.622,1.622v36.205a1.623,1.623,0,0,0,1.622,1.622H766.822a1.623,1.623,0,0,0,1.622-1.622V589.406a1.623,1.623,0,0,0-1.622-1.622Z" transform="translate(-431.368 -313.14)" fill="#e6e6e6"/>
    <circle id="Ellipse_6" data-name="Ellipse 6" cx="11.352" cy="11.352" r="11.352" transform="translate(197.067 283.016)" fill="#e6e6e6"/>
    <path id="Path_43" data-name="Path 43" d="M708.084,612.063a1.892,1.892,0,1,0,0,3.784h89.194a1.892,1.892,0,0,0,.062-3.784H708.084Z" transform="translate(-473.447 -325.262)" fill="#e6e6e6"/>
    <path id="Path_44" data-name="Path 44" d="M708.084,633.811a1.892,1.892,0,1,0,0,3.784h89.194a1.892,1.892,0,0,0,.062-3.784H708.084Z" transform="translate(-473.447 -335.658)" fill="#e6e6e6"/>
    <path id="Path_47" data-name="Path 47" d="M407.413,238.269l-.738-.739,19.545-19.545,12.936,12.936,25.577-25.577,8.352,8.352,22.788-22.788.738.738-23.526,23.526-8.352-8.352L439.156,232.4,426.22,219.462Z" transform="translate(-194.4 -91.259)" fill="#6c63ff"/>
    <path id="Path_45-2" data-name="Path 45" d="M710.238,312.435a51.333,51.333,0,0,1-51.354-51.311v-.043c0-.108,0-.221.006-.328a51.354,51.354,0,1,1,51.354,51.682h-.006Zm0-101.629a50.381,50.381,0,0,0-50.266,49.979c-.006.115-.006.209-.006.294a50.279,50.279,0,1,0,50.279-50.273Z" transform="translate(-450.833 -132.936)" fill="#e6e6e6"/>
    <path id="Path_48" data-name="Path 48" d="M383.4,310.151s2.747,12.639-6.594,17.584c0,0,2.2,28.025,16.485,28.574s14.287-14.836,14.287-14.836l-2.2-8.243s-10.44-6.044-3.846-17.584Z" transform="translate(-315.994 -180.941)" fill="#feb8b8"/>
    <circle id="Ellipse_12" data-name="Ellipse 12" cx="25.827" cy="25.827" r="25.827" transform="translate(53.396 84.425)" fill="#2f2e41"/>
    <path id="Path_49" data-name="Path 49" d="M99.665,359.176v30.772l45.609-1.648-3.3-30.222Z" transform="translate(-47.642 -171.169)" fill="#feb8b8"/>
    <circle id="Ellipse_13" data-name="Ellipse 13" cx="16.485" cy="16.485" r="16.485" transform="translate(63.013 105.031)" fill="#feb8b8"/>
    <path id="Path_50" data-name="Path 50" d="M345.424,343.167s-9.341-1.648-12.639,0-7.143,1.1-10.99,17.035l-7.143,32.97s-1.1,9.891,7.144,8.792,7.693-15.386,7.693-15.386l5.495-12.639,9.891-10.99Z" transform="translate(-286.258 -196.373)" fill="#feb8b8"/>
    <path id="Path_51" data-name="Path 51" d="M433.656,356.471s13.188,1.648,14.287,8.792S443,401.53,443,401.53l-9.341-9.342,4.945-18.134Z" transform="translate(-343.168 -203.083)" fill="#feb8b8"/>
    <path id="Path_52" data-name="Path 52" d="M362.119,341.8l.275,10.166L354.7,368.453l3.376,42.925,45.3.924-3.067-32.859s6.045-7.693,2.747-14.287-5.77-16.76-5.77-16.76l-4.4-2.747s7.418,17.309-7.968,14.561-16.21-20.057-16.21-20.057Z" transform="translate(-305.426 -195.283)" fill="#e6e6e6"/>
    <path id="Path_53" data-name="Path 53" d="M325.554,555.437l-7.693,43.411-8.792,63.193-3.846,7.144,3.3,7.144,9.342-4.4,3.847-17.035S334.9,638.961,332.7,618.63l23.629-56.6Z" transform="translate(-281.774 -298.194)" fill="#feb8b8"/>
    <path id="Path_54" data-name="Path 54" d="M416.812,559.833l5.5,53.851s-1.1,14.837,2.2,28.025S430,677.976,430,677.976h10.99l-2.2-67.589,7.143-54.95Z" transform="translate(-335.116 -298.194)" fill="#feb8b8"/>
    <path id="Path_55" data-name="Path 55" d="M362.789,464.332s-23.079-1.648-23.079,1.1v5.5s-4.4,7.143-3.846,13.737-25.729,53.255-11.991,59.85,29.147,11.905,31.895,9.707,11.968-45.928,11.968-45.928-.272,47.69,4.673,48.239,41.6,4.946,41.6,0-28.7-97.42-28.7-97.42S369.383,464.882,362.789,464.332Z" transform="translate(-288.786 -252.148)" fill="#2f2e41"/>
    <path id="Path_56" data-name="Path 56" d="M286.5,772.493s-2.2-3.846-4.4-1.1-10.441,9.342-10.441,9.342-20.331,5.495-6.594,13.737c0,0,12.089,0,17.035-3.846a11.223,11.223,0,0,1,9.891-2.2s7.693-.549,8.243-3.846-2.879-14.177-2.879-14.177S293.64,775.24,286.5,772.493Z" transform="translate(-260.3 -400.954)" fill="#2f2e41"/>
    <path id="Path_57" data-name="Path 57" d="M440.169,779.6s-6.594-1.649-6.594,0-9.341,11.54-1.648,15.935,8.792,3.3,9.341,7.693,14.836,7.693,17.034,4.945,3.846-7.693,1.1-9.891-11.54-15.936-11.54-18.683S440.169,779.6,440.169,779.6Z" transform="translate(-340.889 -404.767)" fill="#2f2e41"/>
    <rect id="Rectangle_3" data-name="Rectangle 3" width="1.491" height="8.243" transform="translate(75.877 182.755)" fill="#fff" opacity="0.1"/>
    <path id="Path_58" data-name="Path 58" d="M446.686,423.36s-10.441-13.738-9.891-3.846,6.594,14.837,7.693,14.837S449.983,433.251,446.686,423.36Z" transform="translate(-344.659 -231.507)" fill="#feb8b8"/>
    <path id="Path_59" data-name="Path 59" d="M359.965,445.022c.824.133,14.012-4.813,14.012-4.813l8.242-1.1-22.255,9.307Z" transform="translate(-307.942 -242.587)" opacity="0.1"/>
    <circle id="Ellipse_14" data-name="Ellipse 14" cx="7.693" cy="7.693" r="7.693" transform="translate(47.902 83.876)" fill="#2f2e41"/>
    <circle id="Ellipse_15" data-name="Ellipse 15" cx="7.693" cy="7.693" r="7.693" transform="translate(95.159 81.678)" fill="#2f2e41"/>
    <path id="Path_60" data-name="Path 60" d="M440.031,220.466a7.693,7.693,0,0,1,6.868-7.647,7.693,7.693,0,1,0,0,15.295,7.693,7.693,0,0,1-6.869-7.648Z" transform="translate(-345.422 -134.392)" fill="#2f2e41"/>
    <path id="Path_61" data-name="Path 61" d="M347.241,240.555a7.693,7.693,0,0,1-.446-10.27,7.693,7.693,0,1,0,10.7,10.925A7.693,7.693,0,0,1,347.241,240.555Z" transform="translate(-300.242 -142.763)" fill="#2f2e41"/>
    <path id="Path_62" data-name="Path 62" d="M396.978,250.671c-9.1,0-16.485,4.305-16.485,9.616,0,2.376,1.484,4.548,3.932,6.226l3.174-2.3-.863,3.6c.358.166.724.327,1.105.475l4.741-5.531v6.795a27.676,27.676,0,0,0,4.4.349c9.1,0,16.485-4.305,16.485-9.616S406.082,250.671,396.978,250.671Z" transform="translate(-317.755 -152.508)" fill="#2f2e41"/>
    <path id="Path_63" data-name="Path 63" d="M442.54,233.828s-1.195,5.495,6.271,7.693" transform="translate(-347.381 -144.457)" fill="#6c63ff"/>
    <path id="Path_64" data-name="Path 64" d="M375.461,235.744s2.747,6.143-5.495,8.891" transform="translate(-312.723 -145.373)" fill="#6c63ff"/>
    <path id="Path_65" data-name="Path 65" d="M406.833,411.073a1.388,1.388,0,0,0-1.387,1.387v16.179a1.388,1.388,0,0,0,1.387,1.387h28.2a1.388,1.388,0,0,0,1.387-1.387V412.46a1.388,1.388,0,0,0-1.387-1.387Z" transform="translate(-329.683 -229.184)" fill="#6c63ff"/>
    <path id="Path_66" data-name="Path 66" d="M435.624,422.181H413.437a.462.462,0,1,1,0-.924h22.188a.462.462,0,0,1,0,.924Z" transform="translate(-333.282 -234.052)" fill="#fff"/>
    <path id="Path_67" data-name="Path 67" d="M435.624,429.266H413.437a.462.462,0,1,1,0-.924h22.188a.462.462,0,0,1,0,.924Z" transform="translate(-333.282 -237.439)" fill="#fff"/>
    <path id="Path_68" data-name="Path 68" d="M435.624,436.35H413.437a.462.462,0,1,1,0-.924h22.188a.462.462,0,0,1,0,.924Z" transform="translate(-333.282 -240.826)" fill="#fff"/>
    <path id="Path_69" data-name="Path 69" d="M326.323,423.463s4.4-2.747,13.188-1.648l17.035-4.4s15.936-9.341,21.98,2.2S356,427.31,356,427.31s-19.233,15.386-30.772,7.144Z" transform="translate(-291.335 -230.511)" fill="#feb8b8"/>
  </g>
</svg>
