<svg id="Group_5" data-name="Group 5" xmlns="http://www.w3.org/2000/svg" width="427.5" height="259.816" viewBox="0 0 427.5 259.816">
  <path id="Path_70" data-name="Path 70" d="M427.3,521.257H0v-1.085H427.5Z" transform="translate(0 -261.44)" fill="#3f3d56"/>
  <path id="Path_71" data-name="Path 71" d="M861.391,357.687l-10.813,21.407-32.331,14.7c-3.453,5.835-14.424,6.282-15.222,2.508-.9-4.233,13.323-11.047,13.323-11.047l27.042-18.291,2.366-15.746Z" transform="translate(-488.271 -270.442)" fill="#a0616a"/>
  <path id="Path_72" data-name="Path 72" d="M736.7,464.215l1.994,15.953-11.566.8-1.2-16.751Z" transform="translate(-364.857 -233.316)" fill="#a0616a"/>
  <path id="Path_73" data-name="Path 73" d="M884.188,672.625a31.314,31.314,0,0,0,2.854-3.49c1.658-2.294,3.128,9.473,3.128,9.473s1.6,4.786,1.2,7.179-9.572,2.393-11.167,1.994-9.572,0-9.572,0H858.663c-10.369-4.786,0-7.976,0-7.976,3.191-.4,13.959-10.369,13.959-10.369l2.393-4.387c1.6-.4,3.191,5.583,3.191,5.583Z" transform="translate(-513.939 -428.166)" fill="#2f2e41"/>
  <path id="Path_74" data-name="Path 74" d="M796.837,464.616l1.995,15.953-11.566.8-1.2-16.751Z" transform="translate(-395.081 -233.518)" fill="#a0616a"/>
  <path id="Path_75" data-name="Path 75" d="M944.325,673.026a31.316,31.316,0,0,0,2.854-3.49c1.657-2.294,3.128,9.473,3.128,9.473s1.6,4.387,1.2,6.78-9.572,2.393-11.167,1.994-9.572.4-9.572.4H918.8c-10.369-4.786,0-7.976,0-7.976,3.191-.4,13.959-10.369,13.959-10.369l2.393-4.387c1.6-.4,3.191,5.584,3.191,5.584Z" transform="translate(-544.164 -428.367)" fill="#2f2e41"/>
  <path id="Path_76" data-name="Path 76" d="M905.982,445.674c1.6,1.994.8,8.774.8,8.774s2.792,21.935,1.6,23.929.8,3.589,1.994,6.381,2.393,9.572,2.393,9.572c6.78,5.583,6.381,31.108,6.381,31.108l2.393,22.733c-.8,2.393-11.965,2.792-13.56,2.393s-6.381-36.293-6.381-36.293l-10.768-20.34s.8,54.24.8,56.633-10.768,1.2-13.161,1.2-2.393-39.882-2.393-39.882l-2.393-10.37-12.762-47.46v-5.583l1.994-2.792S904.386,443.68,905.982,445.674Z" transform="translate(-517.387 -317.472)" fill="#2f2e41"/>
  <circle id="Ellipse_16" data-name="Ellipse 16" cx="12.364" cy="12.364" r="12.364" transform="translate(358.683 12.942)" fill="#a0616a"/>
  <path id="Path_77" data-name="Path 77" d="M899.782,251.326c2.506,5.581,1.022,13.375-3.988,21.935l20.34-9.571-3.191-2.792.8-7.976Z" transform="translate(-534.917 -220.237)" fill="#a0616a"/>
  <path id="Path_78" data-name="Path 78" d="M882.453,273.761c-2.664,1.583-4.257,4.493-5.172,7.454a70.64,70.64,0,0,0-3.035,16.876l-.966,17.148L861.315,360.7c10.369,8.774,16.352,6.78,30.311-.4S907.18,362.7,907.18,362.7s1.2-.4,0-1.6,0,0,1.2-1.2,0,0-.4-1.2,0-.4.4-.8-1.6-3.988-1.6-3.988l3.191-29.912,3.988-42.275c-4.786-5.982-18.346-11.167-18.346-11.167l-12.363,8.774c-3.988,1.6-.8-4.786-.8-4.786Z" transform="translate(-517.588 -229.91)" fill="#6c63ff"/>
  <path id="Path_79" data-name="Path 79" d="M953.529,343.937l1.6,23.929-20.34,29.114c0,6.78-3.589,8.375-3.589,8.375a52.713,52.713,0,0,1-3.589-6.78,7.741,7.741,0,0,1,1.2-7.976l13.959-29.513-5.982-14.756Z" transform="translate(-550.576 -266.784)" fill="#a0616a"/>
  <path id="Path_80" data-name="Path 80" d="M952.029,292.591c6.78,2.393,7.976,28.316,7.976,28.316-7.976-4.387-17.548,2.792-17.548,2.792s-1.994-6.78-4.387-15.554a15.242,15.242,0,0,1,3.191-14.358S945.249,290.2,952.029,292.591Z" transform="translate(-555.857 -240.564)" fill="#6c63ff"/>
  <path id="Path_81" data-name="Path 81" d="M914.887,226.124c-1.574-1.259-3.721,1.03-3.721,1.03l-1.259-11.332s-7.87.944-12.906-.315-5.824,4.564-5.824,4.564a40.418,40.418,0,0,1-.157-7.083c.315-2.833,4.407-5.666,11.647-7.555s11.018,6.3,11.018,6.3C918.721,214.247,916.461,227.383,914.887,226.124Z" transform="translate(-532.474 -197.029)" fill="#2f2e41"/>
  <path id="Path_82" data-name="Path 82" d="M210.665,514.7c1.359,5.4,12.95,17.531,24.91,28.926-18.443-45.555-7.934-95.411-7.934-95.411C224.217,467.8,271.15,566.337,271.15,566.337l-10.69,6.3-3.611,5.082C220.649,561.1,210.665,514.7,210.665,514.7Z" transform="translate(-190.569 -319.197)" fill="#e6e6e6"/>
  <rect id="Rectangle_4" data-name="Rectangle 4" width="151.194" height="29.851" transform="translate(180.797 94.491)" fill="#e6e6e6"/>
  <rect id="Rectangle_5" data-name="Rectangle 5" width="151.194" height="29.851" transform="translate(180.797 47.323)" fill="#e6e6e6"/>
  <rect id="Rectangle_6" data-name="Rectangle 6" width="151.194" height="29.851" transform="translate(180.797)" fill="#e6e6e6"/>
  <path id="Path_83" data-name="Path 83" d="M540.23,218.708H684.978V195.3H540.23Z" transform="translate(-356.209 -192.08)" fill="#fff"/>
  <path id="Path_84" data-name="Path 84" d="M540.23,314.059H684.978v-23.4H540.23Z" transform="translate(-356.209 -240.004)" fill="#fff"/>
  <path id="Path_85" data-name="Path 85" d="M540.23,408.68H684.977v-23.4H540.23Z" transform="translate(-356.209 -287.561)" fill="#fff"/>
  <circle id="Ellipse_17" data-name="Ellipse 17" cx="8.917" cy="8.917" r="8.917" transform="translate(187.775 5.815)" fill="#6c63ff"/>
  <rect id="Rectangle_7" data-name="Rectangle 7" width="88.003" height="1.938" transform="translate(218.014 11.243)" fill="#6c63ff"/>
  <rect id="Rectangle_8" data-name="Rectangle 8" width="88.003" height="1.938" transform="translate(218.014 16.282)" fill="#6c63ff"/>
  <circle id="Ellipse_18" data-name="Ellipse 18" cx="8.917" cy="8.917" r="8.917" transform="translate(187.775 53.526)" fill="#ccc"/>
  <rect id="Rectangle_9" data-name="Rectangle 9" width="88.003" height="1.938" transform="translate(218.014 58.954)" fill="#ccc"/>
  <rect id="Rectangle_10" data-name="Rectangle 10" width="88.003" height="1.938" transform="translate(218.014 63.993)" fill="#ccc"/>
  <circle id="Ellipse_19" data-name="Ellipse 19" cx="8.917" cy="8.917" r="8.917" transform="translate(187.775 100.694)" fill="#ccc"/>
  <rect id="Rectangle_11" data-name="Rectangle 11" width="88.003" height="1.938" transform="translate(218.014 106.122)" fill="#ccc"/>
  <rect id="Rectangle_12" data-name="Rectangle 12" width="88.003" height="1.938" transform="translate(218.014 111.162)" fill="#ccc"/>
  <path id="Path_86" data-name="Path 86" d="M309.418,358.27s-2.085,13.1,6.552,11.912c0,0,34.248-7.743,36.035-5.956s12.9,2.4,12.316-5.138c-.581-7.559-11.721-3.2-11.721-3.2s-17.273,2.383-20.847.6-13.7-1.191-13.7-1.191Z" transform="translate(-240.091 -272.162)" fill="#a0616a"/>
  <path id="Path_87" data-name="Path 87" d="M336.924,447.853l-4.749,45.058s-1.489,17.869-5.956,21.74c0,0,0,5.658-1.489,7.445l-2.085,23.527s2.978,8.637,2.68,10.126,1.191,6.254.893,6.85-14.295,0-14.295,0l2.978-47.948,9.232-66.71Z" transform="translate(-241.462 -319.013)" fill="#2f2e41"/>
  <path id="Path_88" data-name="Path 88" d="M305.76,672.348S299.515,688.1,302.773,690s37.474.543,37.474.543,5.7-3.53-.815-5.974c0,0-5.431-.272-8.961-2.444a51.921,51.921,0,0,1-7.6-6.245s-.272-5.974-2.444-4.616a5.581,5.581,0,0,0-2.444,3.8Z" transform="translate(-236.39 -431.198)" fill="#2f2e41"/>
  <path id="Path_89" data-name="Path 89" d="M286.015,667.928s-6.85,17.273-3.276,19.358,41.1.6,41.1.6,6.254-3.872-.893-6.552c0,0-5.956-.3-9.828-2.68a56.93,56.93,0,0,1-8.339-6.85s-.3-6.552-2.68-5.063a6.121,6.121,0,0,0-2.68,4.169Z" transform="translate(-226.275 -428.914)" fill="#2f2e41"/>
  <path id="Path_90" data-name="Path 90" d="M313.257,438.8s-3.276,30.675-4.765,37.226a84.7,84.7,0,0,0-1.787,13.1s-.3,9.53-2.978,12.21a8.049,8.049,0,0,0-2.383,5.956s-2.68,30.079-1.191,33.653,3.51,8.217,2.021,10.6-18.4.718-18.4-1.069,0-3.276-.893-4.169,0-6.552,0-6.552-3.574-26.505-.3-34.248,4.765-28.888,4.765-28.888-2.382-24.123-5.361-27.994.6-17.571.6-17.571Z" transform="translate(-225.82 -310.57)" fill="#2f2e41"/>
  <path id="Path_91" data-name="Path 91" d="M329.2,246.454a4,4,0,0,0,1.929,1.643c4.372,2.409,8.032,5.9,11.638,9.354a13.663,13.663,0,0,1,.542-9.24c.431-1,.995-2.069.687-3.11a3.872,3.872,0,0,0-1.51-1.807,46.82,46.82,0,0,0-4.605-3.142c-1.115-.667-3.408-2.443-4.687-2.25a11.886,11.886,0,0,1-.859,4.891C332.15,243.177,329.327,246.756,329.2,246.454Z" transform="translate(-250.142 -213.483)" fill="#a0616a"/>
  <circle id="Ellipse_20" data-name="Ellipse 20" cx="12.21" cy="12.21" r="12.21" transform="translate(82.077 12.38)" fill="#a0616a"/>
  <path id="Path_92" data-name="Path 92" d="M317.125,274.367s2.085-10.423-3.872-14-12.806-7.743-12.806-7.743-2.085-.3-2.978,4.169c0,0-16.975,3.276-18.762,19.358s1.191,39.609,1.191,39.609-2.68,20.549-5.956,31.568c0,0-2.68,2.382,9.232-1.191s32.759,10.126,32.759,10.126,2.085-2.085,2.085-3.574,4.467-46.756,5.361-50.926S319.805,274.963,317.125,274.367Z" transform="translate(-222.243 -220.889)" fill="#e6e6e6"/>
  <path id="Path_93" data-name="Path 93" d="M340.639,220.2a5.092,5.092,0,0,1,2.395-.638,4.557,4.557,0,0,0,2.369-.706c1.153-.885,1.238-2.6,2.082-3.781,1.222-1.715,3.659-1.921,5.762-1.835a6.385,6.385,0,0,0,3.755-.567,5.64,5.64,0,0,0,1.991-3.328c.444-1.5.73-3.332-.369-4.444-.763-.772-1.968-.925-2.815-1.6-.459-.367-6.524-1.84-12.217-3.165a11.9,11.9,0,0,0-13.88,7.533c-1.315,3.615-2.441,7.012-2.325,7.745.557,3.511,3.662,6.3,3.876,9.851a6.047,6.047,0,0,1,3.691-4.389,1.155,1.155,0,0,1,.752-.091c.309.1.489.407.684.666.51.678,2.113,1.707,3.021,1.226C340.224,222.245,339.617,220.894,340.639,220.2Z" transform="translate(-249.23 -194.353)" fill="#3f3d56"/>
  <path id="Path_94" data-name="Path 94" d="M364.852,345.3a1.358,1.358,0,0,0-.028,1.911l8.586,8.887a1.355,1.355,0,0,0,1.931.019l26.2-26.086a1.355,1.355,0,0,0-.217-2.1l-10.3-6.71a1.347,1.347,0,0,0-1.687.166Z" transform="translate(-267.859 -255.258)" fill="#3f3d56"/>
  <path id="Path_95" data-name="Path 95" d="M401.65,335.737a1.363,1.363,0,0,1-.18.221l-26.138,26.579a1.355,1.355,0,0,1-1.931-.019l-8.771-9.256a1.354,1.354,0,0,1-.16-.2,1.216,1.216,0,0,0,.284,1.557l8.586,8.887a1.355,1.355,0,0,0,1.931.019l26.2-26.086a1.356,1.356,0,0,0,.18-1.7Z" transform="translate(-267.788 -262.663)" fill="#6c63ff"/>
  <path id="Path_96" data-name="Path 96" d="M400.672,330.014l-1.066-.68a1.016,1.016,0,0,1-1.462,1.334l-6.9-4.743a1.015,1.015,0,0,1,.268-1.805l-.549-.35a.37.37,0,0,0-.462.052l-23.21,22.809a.37.37,0,0,0,.009.529l8.429,8.213a.37.37,0,0,0,.514-.007l24.489-24.778a.37.37,0,0,0-.062-.573Z" transform="translate(-269.237 -256.619)" fill="#fff"/>
  <path id="Path_97" data-name="Path 97" d="M210.391,155.064l7.12,6.713,16.935-16.732-8.6-5.594Z" transform="translate(-105.743 -70.089)" fill="#e6e6e6"/>
  <path id="Path_98" data-name="Path 98" d="M427.62,345.9a.252.252,0,0,0,.349,0l1.481-1.481a.247.247,0,0,0,0-.348.252.252,0,0,0-.349,0l-1.481,1.481a.247.247,0,0,0,0,.348Z" transform="translate(-299.575 -266.818)" fill="#3f3d56"/>
  <path id="Path_99" data-name="Path 99" d="M422.6,350.917a.247.247,0,0,0,.349,0l1.481-1.481a.246.246,0,0,0-.349-.349l-1.481,1.481A.247.247,0,0,0,422.6,350.917Z" transform="translate(-297.054 -269.337)" fill="#3f3d56"/>
  <circle id="Ellipse_21" data-name="Ellipse 21" cx="1.663" cy="1.663" r="1.663" transform="translate(103.149 89.075)" fill="#6c63ff"/>
  <path id="Path_100" data-name="Path 100" d="M291.942,348.95s-2.085,13.1,6.552,11.912c0,0,34.248-7.743,36.035-5.956s12.9,2.4,12.316-5.138c-.581-7.559-11.721-3.2-11.721-3.2s-17.273,2.383-20.847.6-13.7-1.191-13.7-1.191Z" transform="translate(-231.308 -267.478)" fill="#a0616a"/>
  <path id="Path_101" data-name="Path 101" d="M303.172,269.4s-13.4,1.489-13.4,20.847v24.718l16.38-6.85S313,292.03,312.4,287.562,312.106,269.991,303.172,269.4Z" transform="translate(-230.328 -229.319)" fill="#e6e6e6"/>
</svg>
