<svg xmlns="http://www.w3.org/2000/svg" width="328.073" height="276.682" viewBox="0 0 328.073 276.682">
  <g id="Group_6" data-name="Group 6" transform="translate(0)">
    <rect id="Rectangle_13" data-name="Rectangle 13" width="302.077" height="193.464" transform="translate(5.019 0.171)" fill="#e6e6e6"/>
    <rect id="Rectangle_14" data-name="Rectangle 14" width="284.802" height="157.753" transform="translate(13.656 24.436)" fill="#fff"/>
    <rect id="Rectangle_15" data-name="Rectangle 15" width="302.077" height="12.833" transform="translate(4.89)" fill="#6c63ff"/>
    <circle id="Ellipse_22" data-name="Ellipse 22" cx="2.379" cy="2.379" r="2.379" transform="translate(12.048 4.183)" fill="#fff"/>
    <circle id="Ellipse_23" data-name="Ellipse 23" cx="2.379" cy="2.379" r="2.379" transform="translate(21.076 4.183)" fill="#fff"/>
    <circle id="Ellipse_24" data-name="Ellipse 24" cx="2.379" cy="2.379" r="2.379" transform="translate(30.105 4.183)" fill="#fff"/>
    <path id="Path_102" data-name="Path 102" d="M736.847,576.821l2.22,8.88-9.767,2.664-.888-9.324Z" transform="translate(-413.778 -327.666)" fill="#a0616a"/>
    <path id="Path_103" data-name="Path 103" d="M650.532,600.183v8.435l-9.768,1.776-1.776-4.44,3.552-7.547Z" transform="translate(-362.98 -339.928)" fill="#a0616a"/>
    <path id="Path_104" data-name="Path 104" d="M879.212,519.477l-1.332,11.987.888,23.087s0,2.22,1.332,3.108c.714.485,16.427,44.4,16.427,44.4a10.573,10.573,0,0,1-10.211,3.108l-1.332-4.44s-1.776-5.772-2.664-7.1-14.207-28.415-14.207-28.415l-6.216-11.1-1.776,15.1s3.552,19.091,2.664,27.971-2.664,18.2-2.664,18.2L849.465,613.6a7.414,7.414,0,0,0-1.332-4c-1.332-1.776-.888-7.992-.888-7.992v-1.332l-2.664-34.186L839.7,521.253Z" transform="translate(-572.125 -351.126)" fill="#2f2e41"/>
    <circle id="Ellipse_25" data-name="Ellipse 25" cx="11.987" cy="11.987" r="11.987" transform="translate(264.909 63.572)" fill="#a0616a"/>
    <path id="Path_105" data-name="Path 105" d="M647.1,175.443l4.884,11.987-11.543,8.436-7.1-12.432Z" transform="translate(-359.769 -99.661)" fill="#a0616a"/>
    <path id="Path_106" data-name="Path 106" d="M858.783,323.321l4.44-2.22,2.664,6.216s17.315,5.328,15.983,29.747-4.44,33.742-4.44,33.742,7.548,15.983,3.108,17.759-42.178,8.436-43.066,2.22,3.108-42.622,3.108-42.622-1.332-26.195,9.768-31.523l-2.22-4.884Z" transform="translate(-570.788 -238.437)" fill="#3f3d56"/>
    <path id="Path_107" data-name="Path 107" d="M822.284,525.644s-10.211,10.655-4.44,13.319,9.324-11.987,9.324-11.987Z" transform="translate(-558.707 -354.629)" fill="#a0616a"/>
    <path id="Path_108" data-name="Path 108" d="M848.458,736.124l4.884-1.776s5.328,11.987.888,11.987H842.686s-6.66-2.22-10.211-2.22-10.212-6.66-5.328-9.768,11.1-2.22,11.1-2.22l1.776-4,2.22,6.216S844.906,738.788,848.458,736.124Z" transform="translate(-564.015 -469.653)" fill="#2f2e41"/>
    <path id="Path_109" data-name="Path 109" d="M946.505,720.518s2.78-1.754,4.276-1.1,2.384,7.759,2.384,7.759,4.44,5.328-5.328,6.216-11.987-.888-12.875-3.552.888-5.328.888-5.328l2.664-.888s3.108-2.22,2.22-3.108,0-2.664,0-2.664S943.841,724.07,946.505,720.518Z" transform="translate(-626.099 -463.814)" fill="#2f2e41"/>
    <path id="Path_110" data-name="Path 110" d="M848.742,280.73a5.879,5.879,0,0,0-.261-1.141c-.644-1.352-3.158-.957-3.606-2.386-.088-.28-.069-.584-.155-.864a1.753,1.753,0,0,0-1.806-1.035,9.755,9.755,0,0,0-2.164.557,14.354,14.354,0,0,1-5.44.114,5.473,5.473,0,0,1-2.323-.6,1.872,1.872,0,0,1-.932-2.042c.24-.736,1.045-1.14,1.407-1.824.575-1.086-.128-2.489.339-3.626.748-1.824,3.579-1.458,5.017-2.806.349-.327.6-.745.935-1.087a4.839,4.839,0,0,1,3.973-1.071,36.665,36.665,0,0,0,4.22.53c1.346-.024,2.757-.434,4,.09a5.7,5.7,0,0,1,1.878,1.543L857,268.567a3.921,3.921,0,0,1,.983,1.481,13.042,13.042,0,0,1,.1,2.077c.186,1.575,1.661,2.764,1.86,4.338a5.637,5.637,0,0,1-.07,1.461l-.446,3.286a2.444,2.444,0,0,1-.251.921c-.13.221-.326.4-.471.607a6.9,6.9,0,0,0-.579,2.078c-.2.695-.939,1.382-1.581,1.047-.419-.218-.7-2.025-1.2-2.494-.709-.653-1.079-.573-1.954-.562C851.633,282.829,849.3,282.979,848.742,280.73Z" transform="translate(-567.746 -205.362)" fill="#2f2e41"/>
    <path id="Path_111" data-name="Path 111" d="M847.063,364.248s13.319,5.328,9.324,17.315S841.735,430.4,841.735,430.4l-6.216,3.108-1.776,4.884-8.436-3.108,1.332-6.66,3.108-6.66,7.992-49.726S837.739,363.8,847.063,364.248Z" transform="translate(-563.951 -262.937)" fill="#3f3d56"/>
    <path id="Path_112" data-name="Path 112" d="M652.87,280.284l-13.763,47.062-5.772,5.772,3.33-5.994Z" transform="translate(-359.769 -159.216)" opacity="0.1"/>
    <path id="Path_113" data-name="Path 113" d="M258.544,427.631l2.6,18.454L272.1,465.693c3.172,2.883.288,9.8.288,9.8l-2.883-2.018-.577-3.46S256.238,455.6,253.066,452.14s-4.325-22.491-4.325-22.491Z" transform="translate(-236.43 -298.952)" fill="#fbbebe"/>
    <path id="Path_114" data-name="Path 114" d="M237.952,712.809s.577,6.632.288,8.362-8.939-.288-8.939-.288c1.442-2.883,2.307-11.534,2.307-11.534Z" transform="translate(-225.387 -458.983)" fill="#fbbebe"/>
    <path id="Path_115" data-name="Path 115" d="M337.8,720.226s.865,9.227.577,10.957-8.939-.288-8.939-.288c1.442-2.883,2.307-11.534,2.307-11.534Z" transform="translate(-282.268 -464.671)" fill="#fbbebe"/>
    <circle id="Ellipse_26" data-name="Ellipse 26" cx="10.488" cy="10.488" r="10.488" transform="translate(27.371 86.658)" fill="#fbbebe"/>
    <path id="Path_116" data-name="Path 116" d="M280.171,367.337c-1.73,2.307-.865,6.344-.865,6.344s-17.589,20.473-20.761,20.473-2.6-14.417-2.6-14.417,4.614-5.479,7.209-6.632,7.209-13.552,7.209-13.552S281.9,365.03,280.171,367.337Z" transform="translate(-240.502 -260.279)" fill="#fbbebe"/>
    <path id="Path_117" data-name="Path 117" d="M277.45,468.362l11.287,18.96c2.06,3.389-1.772,20.544-1.772,20.544l-1.73,36.62-2.883,36.9v4.037l-9.515-.288-3.172-39.494-4.614-29.7-7.5,22.779-12.4,27.97a76.647,76.647,0,0,1-3.893,10.088l-2.307,4.037-8.648-1.011,13.118-44.255,2.6-28.835c.288-16.147,5.479-25.086,5.479-25.086v-3.46Z" transform="translate(-225.958 -322.089)" fill="#2f2e41"/>
    <path id="Path_118" data-name="Path 118" d="M232.227,731.229s1.442-2.307,1.442-1.442,3.749,3.172,3.749,3.172,3.749-.577,4.325,3.748-5.19,5.19-6.632,4.9a23.528,23.528,0,0,0-5.19.288,25.732,25.732,0,0,1-7.5,0c-4.614-.577-.577-8.362,0-9.8s3.46-.288,3.46-.288C231.074,733.247,232.227,731.229,232.227,731.229Z" transform="translate(-220.239 -470.483)" fill="#2f2e41"/>
    <path id="Path_119" data-name="Path 119" d="M332.36,741.243s1.442-2.307,1.442-1.442,3.748,3.172,3.748,3.172,3.748-.577,4.325,3.748-5.19,5.19-6.632,4.9a23.514,23.514,0,0,0-5.19.288,25.735,25.735,0,0,1-7.5,0c-4.614-.577-.577-8.362,0-9.8s3.46-.288,3.46-.288C331.207,743.261,332.36,741.243,332.36,741.243Z" transform="translate(-277.12 -476.171)" fill="#2f2e41"/>
    <path id="Path_120" data-name="Path 120" d="M270.591,389.266c7.209-7.5,14.994,11.245,14.994,11.245s2.6,6.92.577,10.669,2.018,12.111,2.018,12.111c-9.875,8.406-19.715,16.178-28.835,10.669,1.153-6.92-2.6-10.38-5.19-17.012s-7.5-5.19-7.5-5.19.288-7.5,1.153-13.552,8.65-8.329,8.65-8.329C257.874,392.411,263.382,396.763,270.591,389.266Z" transform="translate(-235.247 -276.153)" fill="#3f3d56"/>
    <path id="Path_121" data-name="Path 121" d="M318.544,419.631l2.6,18.454L332.1,457.693c3.172,2.883.288,9.8.288,9.8l-2.883-2.018-.577-3.46S316.238,447.6,313.066,444.14s-4.325-22.491-4.325-22.491Z" transform="translate(-270.513 -294.408)" fill="#fbbebe"/>
    <path id="Path_122" data-name="Path 122" d="M319.247,403.033l-12.111,1.442s-.865-14.129.964-17.658,8.552.357,8.552.357C318.382,387.463,319.247,403.033,319.247,403.033Z" transform="translate(-269.486 -274.926)" fill="#3f3d56"/>
    <path id="Path_123" data-name="Path 123" d="M296.158,330.484c-7.756,3.876-3.281,14.46-4.2,18.9-1.5,7.274-23.609,3.577-23.609,3.577-2.69-.484-4.329-30.412,10.4-30.147C286.18,322.949,302.8,327.164,296.158,330.484Z" transform="translate(-246.558 -239.41)" fill="#2f2e41"/>
    <ellipse id="Ellipse_27" data-name="Ellipse 27" cx="1.08" cy="1.728" rx="1.08" ry="1.728" transform="translate(43.792 96.821)" fill="#fbbebe"/>
    <path id="Path_124" data-name="Path 124" d="M388.743,262.541c11.4,2.1,23.027,0,34.379-1.425l34.5-4.319c1.4-.177,3.425-1.011,4.246.7.462.955.151,3.024.186,4.121.091,3.024.082,6.047,0,9.071-.155,5.779-.579,11.546-1.119,17.3-1.05,11.261-2.536,22.461-3.279,33.765-.38,5.754-.57,11.524-.4,17.278.039,1.374.1,2.747.177,4.116.091,1.533.777,3.81-.894,4.833-.955.587-2.834.557-3.926.73-1.728.272-3.456.488-5.218.665-11.615,1.162-23.381.678-35.039.609l-35.2-.181-8.587-.048c-.778,0-3.581.467-4.06-.458-.2-.393.337-2.233.432-2.726q.2-1.218.432-2.432c1-5.68,2.186-11.326,3.378-16.967,2.561-12.094,5.183-24.249,6.237-36.6.523-6.2.177-12.453.816-18.638.3-2.872.652-9.283,4.475-9.537,3.24-.216,6.574,0,9.822,0a.648.648,0,1,0,0-1.3c-3.067,0-6.138-.082-9.2-.022-2.039.039-3.456.523-4.427,2.4-2.484,4.812-2.229,11.231-2.307,16.483-.186,12.574-2.117,24.88-4.63,37.178-1.266,6.19-2.631,12.358-3.888,18.552-.592,2.959-1.158,5.926-1.676,8.9-.242,1.417-1.464,4.54-.389,5.84s4.384.6,5.866.609l10.306.06,19.749.112c12.76.073,25.563.432,38.318.056,6.09-.181,12.526-.432,18.457-1.888,1.767-.432,2.618-1.244,2.687-3.127.1-2.92-.371-5.931-.432-8.864-.432-25.1,5.464-49.842,4.859-74.947-.039-1.706.6-6.008-1.261-7.041a4.713,4.713,0,0,0-2.808-.108c-1.685.194-3.365.432-5.049.631l-21.878,2.73c-6.993.864-13.982,1.8-20.988,2.592-7.417.864-14.906,1.378-22.3,0-.816-.151-1.166,1.1-.346,1.248Z" transform="translate(-301.413 -200.959)" fill="#e6e6e6"/>
    <path id="Path_125" data-name="Path 125" d="M389.757,300.371l86.311-4.233c.834-.043.838-1.339,0-1.3l-86.311,4.233C388.928,299.114,388.923,300.409,389.757,300.371Z" transform="translate(-316.18 -223.52)" fill="#e6e6e6"/>
    <path id="Path_126" data-name="Path 126" d="M451.362,277.422a2.16,2.16,0,0,0,.765,3.486c1.162.531,2.527.086,3.68-.2,1.728-.432,3.456-.816,5.231-1.132a71.334,71.334,0,0,1,11.7-1.089c1.788-.022,3.564.06,5.352.138,1.3.052,2.691.155,3.788-.648a2.446,2.446,0,0,0,.432-3.818c-1.728-1.577-5.451-.661-7.447-.5a167,167,0,0,0-21.537,3.214c-.812.173-.471,1.425.346,1.248q7.028-1.516,14.164-2.436,3.507-.432,7.028-.73c1.106-.091,2.212-.173,3.317-.238.432-.026.89-.073,1.33-.06,1.369.03,1.529-.216.708,1.438-.73,1.464-.5,1.3-1.762,1.248-.536,0-1.071-.06-1.607-.086q-1.646-.069-3.291-.073-3.5,0-6.989.337c-1.97.19-3.935.458-5.883.8-1.218.216-2.428.466-3.633.743-.531.125-1.067.255-1.6.389-.255.069-.514.13-.769.194q-1.417.492-2.415-1.3c.579-.6-.333-1.52-.916-.916Z" transform="translate(-351.195 -211.253)" fill="#e6e6e6"/>
    <path id="Path_127" data-name="Path 127" d="M461.276,324.281c-6.25-.242-13,1.447-17.118,6.479-3.222,3.935-5.058,10.686-1.646,15.118,3.667,4.751,11.71,3.913,16.561,1.888,5.132-2.16,10.747-6.613,12.289-12.185,1.922-6.959-4.319-12.22-10.82-12.3a.648.648,0,0,0,0,1.3c3.706.043,7.343,1.633,9.071,5.084,1.81,3.637.251,7.455-2.16,10.367-3.862,4.635-9.9,8.129-16.051,8.03-3.693-.056-7.775-1.322-8.92-5.218a12.059,12.059,0,0,1,1.417-9.408c3.551-6.047,10.777-8.095,17.4-7.836.834.03.834-1.266,0-1.3Z" transform="translate(-345.464 -239.677)" fill="#e6e6e6"/>
    <path id="Path_128" data-name="Path 128" d="M471,342.122a1.685,1.685,0,0,0-2.263,1.728c.13,1.685,1.987,2.16,3.382,2.06,1.205-.1,2.613-.549,2.19-2.056a1.935,1.935,0,0,0-1.054-1.218,2.44,2.44,0,0,0-1.218-.151c-.16,0-1.624.536-1-.108l-1.019-.134a1.063,1.063,0,0,1,.311.864.652.652,0,0,0,.972.557.864.864,0,0,1,1.171,1.011.652.652,0,0,0,1.184.5c.432-.777.955-2.324.307-3.136a1.383,1.383,0,0,0-1.784-.065,6.251,6.251,0,0,0-.89.765c-.523.462-.864.678-.669-.207a5.6,5.6,0,0,1,3.266-3.538l-.95-.73a13.658,13.658,0,0,1-2.613,5.119l1.106.458a2.885,2.885,0,0,1,1.762-2.812h-.635l.337.553c-.125.816,1.123,1.166,1.248.341.164-1.067-.51-2.453-1.758-1.931a4.068,4.068,0,0,0-2.233,3.849c0,.518.734.92,1.11.462a15.23,15.23,0,0,0,2.942-5.7.657.657,0,0,0-.955-.73,7.244,7.244,0,0,0-3.145,2.739c-.527.864-1.188,2.212-.652,3.205a1.374,1.374,0,0,0,1.867.538l.012-.007a5.052,5.052,0,0,0,1.084-.864c.16-.143.337-.389.549-.432.19-.13.181-.056-.03.229a2.354,2.354,0,0,1-.376,1.261l1.184.5a2.16,2.16,0,0,0-3.071-2.475l.976.562a2.354,2.354,0,0,0-.488-1.525.657.657,0,0,0-1.015-.134,1.7,1.7,0,0,0,.043,2.51c.618.471.92,0,1.6-.108,2.3-.3.959.739.147.773a3.062,3.062,0,0,1-1.084-.078q-1.352-.458-.168-1.179c.773.315,1.106-.937.346-1.248Z" transform="translate(-361.396 -247.92)" fill="#e6e6e6"/>
    <path id="Path_129" data-name="Path 129" d="M463.1,352.244c.531,1.728-1.663,2.3-2.7,2.894a6.021,6.021,0,0,0-1.87,1.637,12.506,12.506,0,0,0-1.853,5.067c-.164.816,1.084,1.162,1.253.346a14.684,14.684,0,0,1,1.093-3.728c.777-1.546,1.892-2.065,3.343-2.859s2.5-2.026,1.987-3.7c-.242-.795-1.495-.454-1.248.346Z" transform="translate(-354.54 -255.675)" fill="#e6e6e6"/>
    <path id="Path_130" data-name="Path 130" d="M467.492,351.283a1.253,1.253,0,0,0-1.08,1.3c0,.514.341.842.574,1.253a9.892,9.892,0,0,1,1.253,2.726,5.88,5.88,0,0,1-.073,3.456c-.894,1.6-2.51,1.3-3.888,1.3-1.3,0-2.3.432-2.255-1.374a5.746,5.746,0,0,1,1.3-2.842l-1.184-.155a22.582,22.582,0,0,1,.393,4c0,.6.92.933,1.205.324a25.023,25.023,0,0,0,1.646-4.553l-1.274-.173.225,3.283a.652.652,0,0,0,1.205.328,1.469,1.469,0,0,0,.324-.583c.043-.2-.354-1.572-.514-1.084l1.27.173.091-3.119-1.3.173a6.453,6.453,0,0,1,.242,2.721c-.082.721,1.132.885,1.3.173l.812-4.19-1.184.151a2.864,2.864,0,0,1,.22,1.866c-.1.829,1.2.821,1.3,0a4.553,4.553,0,0,0-.4-2.518.652.652,0,0,0-1.184.155l-.816,4.19,1.274.173a7.067,7.067,0,0,0-.289-3.062.648.648,0,0,0-1.27.168l-.091,3.119a.651.651,0,0,0,1.274.173l.069-.212a.657.657,0,0,0-.164-.631c-1.343-1.46-1.615.864-2.082,1.508l1.209.328-.225-3.283a.652.652,0,0,0-1.274-.173,23.22,23.22,0,0,1-1.512,4.246l1.209.328a24.421,24.421,0,0,0-.432-4.345c-.112-.6-.894-.57-1.184-.155-.864,1.244-2.358,3.961-1.205,5.451,1.006,1.3,4.173.795,5.525.713,2.134-.121,2.907-1.473,3.14-3.486a8.535,8.535,0,0,0-.16-2.885c-.117-.51-1.3-3.741-1.65-3.676.821-.151.471-1.4-.346-1.253Z" transform="translate(-356.768 -255.582)" fill="#e6e6e6"/>
    <path id="Path_131" data-name="Path 131" d="M465.761,355.677l-3.538,4.669,1.119.652,2.592-3.749-1.184-.5-1.292,4.928a.652.652,0,0,0,1.184.5,22.762,22.762,0,0,1,1.974-2.777l-1.08-.631a7.053,7.053,0,0,1-1.628,2.993l1.084.631a5.788,5.788,0,0,1,.471-1.728c.333-.747-.721-1.408-1.119-.657a15.208,15.208,0,0,1-1.248,1.961l1.184.155.263-1.231-1.184-.155.19,1.08a.652.652,0,0,0,1.084.285,12.9,12.9,0,0,0,2.592-3.909h-1.114a5.819,5.819,0,0,1,.609,1.728c.155.777,1.188.488,1.27-.173a35.119,35.119,0,0,0,.285-4.363h-1.3V358.1c0,.7,1.153.911,1.274.173a4.949,4.949,0,0,1,.635-1.857h-1.136a2.881,2.881,0,0,1,.432,1.469.648.648,0,1,0,1.3,0l.164-.864H468.4c.125.765.6,5.071-1.089,4.566-.285-.069-.367-.052-.246.047l.384-.821.9-1.914-1.209-.328a4.74,4.74,0,0,1-.376,2.92,2.238,2.238,0,0,1-2.44.5,4.319,4.319,0,0,1-1.127-1.184l-.885.864c.717.523,1.879,1.806,2.8,1.879.7.056,1.3-.527,1.758-.993a7.529,7.529,0,0,0,2.112-5.542.648.648,0,0,0-1.3,0V358.5a.648.648,0,1,0,1.3,0v-3.624a.648.648,0,1,0-1.3,0,15.547,15.547,0,0,1-.225,2.592l1.274.173a29.83,29.83,0,0,1-.143-3.106.648.648,0,0,0-1.27-.173c-.194.825-.432,1.637-.661,2.445l1.184-.155-.091-.346c-.06-.825-1.356-.829-1.3,0a2.371,2.371,0,0,0,.268,1,.655.655,0,0,0,1.184-.156c.246-.812.466-1.624.661-2.445l-1.274-.173a29.829,29.829,0,0,0,.143,3.106c.065.665,1.136.95,1.27.173a17.851,17.851,0,0,0,.272-2.955h-1.3v3.624h1.3V357h-1.3a6.229,6.229,0,0,1-1.577,4.44,5.309,5.309,0,0,1-.544.536c-.307.294-.587.251-.834-.134a10.8,10.8,0,0,1-1.784-1.3c-.536-.384-1.27.376-.89.885.993,1.322,2.475,2.795,4.319,2.16,1.939-.687,2.2-3.313,2.056-5.041-.048-.574-.907-.963-1.205-.324-.432.911-.864,1.818-1.3,2.734a2.416,2.416,0,0,0-.389,1.14c.143.972,1.322.812,2.047.756,2.812-.212,2.367-4.2,2.043-6.2-.108-.665-1.076-.562-1.248,0a3.814,3.814,0,0,0-.212,1.227h1.3a5.136,5.136,0,0,0-.609-2.121.652.652,0,0,0-1.119,0,6.3,6.3,0,0,0-.769,2.16l1.3.173v-2.717a.648.648,0,1,0-1.3,0,35.124,35.124,0,0,1-.285,4.363l1.274-.173a7.417,7.417,0,0,0-.739-2.022.652.652,0,0,0-1.119,0,11.819,11.819,0,0,1-2.389,3.646l1.084.285-.19-1.08c-.1-.575-.911-.592-1.184-.156a2.842,2.842,0,0,0-.393,2.229c.108.613.885.549,1.184.155a15.164,15.164,0,0,0,1.248-1.957l-1.119-.657a7.369,7.369,0,0,0-.6,2.034c-.078.57.6,1.166,1.084.631a8.639,8.639,0,0,0,1.961-3.568c.16-.587-.652-1.145-1.084-.631a24.747,24.747,0,0,0-2.16,3.024l1.184.5,1.317-4.911a.652.652,0,0,0-1.184-.5l-2.592,3.754c-.484.7.626,1.3,1.119.652l3.525-4.665c.5-.665-.622-1.3-1.119-.657Z" transform="translate(-357.546 -257.065)" fill="#e6e6e6"/>
    <path id="Path_132" data-name="Path 132" d="M597.061,334.162c5.183-3.17,9.3-7.9,13.883-11.857,4.967-4.289,10.181-8.285,15.55-12.069,10.427-7.343,21.377-13.913,32.318-20.466a.648.648,0,0,0-.652-1.119c-10.941,6.553-21.9,13.11-32.323,20.466-4.92,3.456-9.723,7.118-14.328,11.006-5.011,4.233-9.473,9.5-15.118,12.919-.713.432-.06,1.555.652,1.119Z" transform="translate(-433.739 -219.961)" fill="#e6e6e6"/>
    <path id="Path_133" data-name="Path 133" d="M757.224,244.758c-5.615.57-11.663,2-15.118,6.911-2.985,4.224-2.92,11.593-.117,15.93,3.183,4.929,9.689,5.106,14.742,3.512s10.285-4.389,10.237-10.427a25.2,25.2,0,0,0-2.488-9.55c-1.115-2.536-3.089-4.751-6.078-4.471-.825.078-.834,1.374,0,1.3,4-.371,5.291,4.384,6.242,7.386.864,2.8,1.663,6.121.307,8.907s-4.626,4.207-7.421,5.227c-3.024,1.1-6.345,1.767-9.5.864-6.255-1.749-7.982-9.676-6.181-15.3,2.073-6.479,9.416-8.384,15.4-8.989.821-.082.829-1.378,0-1.3Z" transform="translate(-515.422 -195.068)" fill="#e6e6e6"/>
    <path id="Path_134" data-name="Path 134" d="M777.224,360.758c-5.615.57-11.663,2-15.118,6.911-2.985,4.224-2.92,11.593-.117,15.93,3.183,4.929,9.689,5.106,14.742,3.512s10.285-4.389,10.237-10.427a25.2,25.2,0,0,0-2.488-9.55c-1.115-2.536-3.089-4.751-6.078-4.471-.825.078-.834,1.374,0,1.3,4-.371,5.291,4.384,6.242,7.386.864,2.8,1.663,6.121.307,8.907s-4.626,4.207-7.421,5.227c-3.024,1.1-6.345,1.767-9.5.864-6.255-1.749-7.982-9.676-6.181-15.3,2.073-6.479,9.416-8.384,15.4-8.989.821-.082.829-1.378,0-1.3Z" transform="translate(-526.783 -260.962)" fill="#e6e6e6"/>
    <path id="Path_135" data-name="Path 135" d="M760.221,244.918l4.091,4.665a.652.652,0,0,0,1.08-.289c.864-2.272.7-4.626.9-7.015a23.1,23.1,0,0,1,1.836-7.157,24.159,24.159,0,0,1,9.667-11.079c.713-.432.06-1.555-.652-1.119a25.363,25.363,0,0,0-9.775,10.738,24.825,24.825,0,0,0-2.16,6.855c-.432,2.8-.039,5.741-1.076,8.432l1.084-.289L761.15,244c-.553-.626-1.464.294-.916.916Z" transform="translate(-526.889 -182.611)" fill="#e6e6e6"/>
    <path id="Path_136" data-name="Path 136" d="M602.353,403.243q33.42-1.019,66.857-.432a.648.648,0,0,0,0-1.3q-33.428-.6-66.857.432C601.519,401.973,601.515,403.269,602.353,403.243Z" transform="translate(-436.944 -283.993)" fill="#e6e6e6"/>
    <path id="Path_137" data-name="Path 137" d="M768.194,374.518a133.866,133.866,0,0,1,21.887,11c.708.432,1.361-.678.652-1.119a135.3,135.3,0,0,0-22.176-11.127c-.773-.307-1.11.946-.341,1.248Z" transform="translate(-531.272 -268.045)" fill="#e6e6e6"/>
    <path id="Path_138" data-name="Path 138" d="M784.05,362.352a52.913,52.913,0,0,0-12.7,32.193c-.035.834,1.261.834,1.3,0a51.462,51.462,0,0,1,12.323-31.277c.54-.631-.372-1.551-.916-.916Z" transform="translate(-533.297 -261.748)" fill="#e6e6e6"/>
    <path id="Path_139" data-name="Path 139" d="M399.963,392.178l48.279-.631,5.55-.073c1,0,2-.035,2.993-.039a2.381,2.381,0,0,1,2.324,2.592c-.065,3.024-1.965,2.916-4.453,3.024l-6,.272L424.225,398.4c-4.376.194-8.756.432-13.131.583-3.948.121-11.455-1.166-9.7-6.911.242-.8-1.006-1.14-1.253-.346a6.366,6.366,0,0,0,3.127,7.175c3.494,2.1,8.1,1.387,11.956,1.214l29.994-1.361,7.283-.324c1.866-.086,4.462.294,6.177-.574,2.013-1.015,2.367-5.045,1.1-6.743a3,3,0,0,0-2.592-.98c-2.687-.1-5.421.073-8.112.108l-14.954.2-34.171.432a.648.648,0,0,0,0,1.3Z" transform="translate(-321.967 -277.632)" fill="#e6e6e6"/>
    <path id="Path_140" data-name="Path 140" d="M490.5,331.972l-14.023-8.448,4.1,15.852,2.469-5.775,4.117,5.521,1.221-.911-4.117-5.521Z" transform="translate(-270.662 -183.779)" fill="#6c63ff"/>
    <rect id="Rectangle_16" data-name="Rectangle 16" width="23.757" height="8.207" transform="translate(217.003 157.293)" fill="#6c63ff"/>
    <path id="Path_141" data-name="Path 141" d="M316.831,176.972l14.023-8.448-4.1,15.852L324.29,178.6l-4.117,5.521-1.221-.911,4.117-5.521Z" transform="translate(-179.977 -95.731)" fill="#3f3d56"/>
    <rect id="Rectangle_17" data-name="Rectangle 17" width="23.757" height="8.207" transform="translate(115.927 90.773)" fill="#3f3d56"/>
  </g>
</svg>
